<svg xmlns="http://www.w3.org/2000/svg">

  <!-- Логотип  -->
  <symbol id="logo-header" viewBox="0 0 65 26">
    <path d="M9.78025 11.4158L18.8187 11.3823C18.8187 11.3823 21.087 11.1476 21.087 8.96837C21.087 6.72208 18.8187 6.48739 18.8187 6.48739L9.78025 6.52091V11.4158ZM9.78025 16.7131C9.78025 20.6357 9.78025 20.5016 9.78025 24.4242H3.90351L3.86914 0.821365L18.7844 0.787842C26.3795 0.787842 27.1699 6.15212 27.1699 8.73368C27.1699 11.4829 26.3107 14.8356 22.4616 16.1431L27.8572 24.3572H21.2244L17.5472 18.7582C17.1004 18.0541 16.6193 17.3836 16.1725 16.6795L9.78025 16.7131Z"/>
    <path d="M32.2186 24.4242L32.1839 13.1862H27.083V11.8507L42.5592 11.8181L39.2627 13.1862H33.6066L33.6413 24.4242H32.2186Z"/>
    <path d="M36.2231 18.3003C36.2231 20.8411 38.7191 23.0561 42.1383 23.0561C45.7626 23.0561 48.0534 20.7433 48.0534 18.1049C48.0534 15.5641 45.7284 13.1536 42.1041 13.1536C38.3088 13.1862 36.2231 15.5967 36.2231 18.3003ZM34.8213 18.3003C34.8213 14.6846 37.3173 11.8181 42.1725 11.8181C46.8567 11.8181 49.4895 14.652 49.5237 18.1374C49.5237 21.688 46.7883 24.4242 42.2067 24.4242C37.6934 24.4242 34.8213 21.688 34.8213 18.3003Z"/>
    <path d="M50.1874 17.9715H55.1465C57.2308 17.9715 58.8838 17.3395 58.8838 15.4769C58.8838 13.5477 57.1589 13.1818 55.0746 13.2151H50.1874V17.9715ZM48.7859 24.4242L48.75 11.8181H54.0325C57.2308 11.8181 60.3212 12.3503 60.3571 15.4436C60.3571 18.3706 57.6261 19.2687 54.2481 19.3019H50.1874V24.4242H48.7859Z"/>
    <path d="M60.1648 23.146L58.7793 23.1487L58.782 24.5316L60.1675 24.5289L60.1648 23.146Z"/>
 </symbol>

   <!-- Стрелка вправо  -->
  <symbol id="right-arrow" viewBox="0 0 12 13">
    <path d="M0.5 6.5H10.5M10.5 6.5L5.5 1.5M10.5 6.5L5.5 11.5" stroke="#EA6143" stroke-width="1.5"/>
 </symbol>

<!-- <svg class="icon right-arrow">
        <use href="./assets/svg/sprite.svg#right-arrow"></use>
    </svg> -->

</svg>