<svg xmlns="http://www.w3.org/2000/svg">

  <!-- Логотип  -->
  <symbol id="logo-header" viewBox="0 0 65 26">
    <path d="M9.78025 11.4158L18.8187 11.3823C18.8187 11.3823 21.087 11.1476 21.087 8.96837C21.087 6.72208 18.8187 6.48739 18.8187 6.48739L9.78025 6.52091V11.4158ZM9.78025 16.7131C9.78025 20.6357 9.78025 20.5016 9.78025 24.4242H3.90351L3.86914 0.821365L18.7844 0.787842C26.3795 0.787842 27.1699 6.15212 27.1699 8.73368C27.1699 11.4829 26.3107 14.8356 22.4616 16.1431L27.8572 24.3572H21.2244L17.5472 18.7582C17.1004 18.0541 16.6193 17.3836 16.1725 16.6795L9.78025 16.7131Z"/>
    <path d="M32.2186 24.4242L32.1839 13.1862H27.083V11.8507L42.5592 11.8181L39.2627 13.1862H33.6066L33.6413 24.4242H32.2186Z"/>
    <path d="M36.2231 18.3003C36.2231 20.8411 38.7191 23.0561 42.1383 23.0561C45.7626 23.0561 48.0534 20.7433 48.0534 18.1049C48.0534 15.5641 45.7284 13.1536 42.1041 13.1536C38.3088 13.1862 36.2231 15.5967 36.2231 18.3003ZM34.8213 18.3003C34.8213 14.6846 37.3173 11.8181 42.1725 11.8181C46.8567 11.8181 49.4895 14.652 49.5237 18.1374C49.5237 21.688 46.7883 24.4242 42.2067 24.4242C37.6934 24.4242 34.8213 21.688 34.8213 18.3003Z"/>
    <path d="M50.1874 17.9715H55.1465C57.2308 17.9715 58.8838 17.3395 58.8838 15.4769C58.8838 13.5477 57.1589 13.1818 55.0746 13.2151H50.1874V17.9715ZM48.7859 24.4242L48.75 11.8181H54.0325C57.2308 11.8181 60.3212 12.3503 60.3571 15.4436C60.3571 18.3706 57.6261 19.2687 54.2481 19.3019H50.1874V24.4242H48.7859Z"/>
    <path d="M60.1648 23.146L58.7793 23.1487L58.782 24.5316L60.1675 24.5289L60.1648 23.146Z"/>
 </symbol>

  <!-- Стрелка вправо  -->
  <symbol id="right-arrow" viewBox="0 0 12 13">
    <path d="M0.5 6.5H10.5M10.5 6.5L5.5 1.5M10.5 6.5L5.5 11.5" stroke="#EA6143" stroke-width="1.5"/>
 </symbol>

  <!-- Вконтакте  -->
  <symbol id="icon-vk" viewBox="0 0 41 40">
    <circle cx="20.5" cy="20.001" r="20" fill="#EA6143"/>
    <g clip-path="url(#clip0_220_1848)">
      <path fill-rule="evenodd" clip-rule="evenodd" d="M14.3794 14.9458H12.4832C11.9414 14.9458 11.833 15.1963 11.833 15.4725C11.833 15.9659 12.4759 18.4127 14.8264 21.6489C16.3934 23.8589 18.6011 25.0569 20.6101 25.0569C21.8154 25.0569 21.9646 24.7908 21.9646 24.3325V22.6622C21.9646 22.13 22.0787 22.0238 22.4604 22.0238C22.7417 22.0238 23.2238 22.1619 24.3489 23.2275C25.6346 24.4904 25.8466 25.0569 26.5697 25.0569H28.466C29.0078 25.0569 29.2787 24.7908 29.1225 24.2657C28.9515 23.7424 28.3376 22.9831 27.523 22.083C27.081 21.57 26.4181 21.0175 26.2172 20.7412C25.9359 20.386 26.0163 20.2281 26.2172 19.9124C26.2172 19.9124 28.5275 16.7157 28.7686 15.6305C28.8891 15.2358 28.7686 14.9458 28.1951 14.9458H26.2989C25.8167 14.9458 25.5944 15.1963 25.4738 15.4725C25.4738 15.4725 24.5096 17.7813 23.1435 19.281C22.7015 19.7151 22.5006 19.8532 22.2595 19.8532C22.139 19.8532 21.9645 19.7151 21.9645 19.3205V15.6305C21.9645 15.1569 21.8246 14.9458 21.4227 14.9458H18.4429C18.1416 14.9458 17.9603 15.1656 17.9603 15.3739C17.9603 15.8229 18.6434 15.9264 18.7138 17.1893V19.9322C18.7138 20.5335 18.6032 20.6426 18.3621 20.6426C17.7193 20.6426 16.1556 18.3235 15.2281 15.6699C15.0464 15.1541 14.8641 14.9458 14.3794 14.9458Z" fill="#10110D"/>
    </g>
    <defs>
      <clipPath id="clip0_220_1848">
        <rect width="17.3333" height="17.3333" fill="white" transform="translate(11.833 11.3345)"/>
      </clipPath>
    </defs>
  </symbol>

  <!-- Телеграмм   -->
  <symbol id="icon-tg" viewBox="0 0 41 40">
    <circle cx="20.5" cy="20.001" r="20" fill="#EA6143"/>
    <g clip-path="url(#clip0_220_1853)">
      <path d="M17.6868 27.1324L17.9561 23.166L25.342 16.6771C25.669 16.3864 25.2747 16.2457 24.8419 16.4989L15.7249 22.1157L11.782 20.8967C10.9357 20.6623 10.926 20.0903 11.9743 19.6777L27.3327 13.9015C28.0347 13.592 28.7079 14.0703 28.4387 15.1205L25.8228 27.1324C25.6401 27.9857 25.1112 28.192 24.3803 27.7982L20.3988 24.9288L18.485 26.7386C18.2638 26.9543 18.0811 27.1324 17.6868 27.1324Z" fill="#10110D"/>
    </g>
    <defs>
      <clipPath id="clip0_220_1853">
        <rect width="17.3333" height="17.3333" fill="white" transform="translate(11.833 11.3345)"/>
      </clipPath>
    </defs>
  </symbol>

  <!-- Стрелка вправо  -->
  <symbol id="close" viewBox="0 0 22 22">
    <rect width="28.6418" height="2.47077" transform="matrix(0.707109 -0.707105 0.707109 0.707105 0.000976562 20.2527)" fill="#EEEAEA"/>
    <rect width="28.6418" height="2.47077" transform="matrix(-0.707109 -0.707105 -0.707109 0.707105 22 20.2527)" fill="#EEEAEA"/>
 </symbol>

  <!-- Шеврон вверх  -->
  <symbol id="chevron-up" viewBox="0 0 18 18">
  <g clip-path="url(#clip0_363_453)">
    <path fill-rule="evenodd" clip-rule="evenodd" d="M2.53243 6.46162C2.15586 6.82712 2.15586 7.41971 2.53243 7.78521L9 14.0625L15.4676 7.78521C15.8441 7.41971 15.8441 6.82712 15.4676 6.46162C15.091 6.09613 14.4804 6.09613 14.1039 6.46162L9 11.4153L3.89614 6.46162C3.51956 6.09613 2.90901 6.09613 2.53243 6.46162Z" fill="#878886"/>
  </g>
  <defs>
    <clipPath id="clip0_363_453">
      <rect width="13.5" height="13.5" fill="white" transform="translate(2.25 2.25)"/>
    </clipPath>
  </defs>
 </symbol>

   <!-- скролл вверх  -->
  <symbol id="scroll-up" viewBox="0 0 14 17">
  <path fill-rule="evenodd" clip-rule="evenodd" d="M7 0L14 6.88423L13.0274 7.89781L7.6979 2.65642V17H6.3021V2.65642L0.972571 7.89781L0 6.88423L7 0Z" fill="#878886"/>
 </symbol>



<!-- <svg class="icon scroll-up">
        <use href="./assets/svg/sprite.svg#scroll-up"></use>
    </svg> -->

</svg>